<?xml version="1.0" encoding="UTF-8" standalone="no"?>
<!-- Created with Inkscape (http://www.inkscape.org/) -->

<svg
   xmlns:dc="http://purl.org/dc/elements/1.1/"
   xmlns:cc="http://creativecommons.org/ns#"
   xmlns:rdf="http://www.w3.org/1999/02/22-rdf-syntax-ns#"
   xmlns:svg="http://www.w3.org/2000/svg"
   xmlns="http://www.w3.org/2000/svg"
   xmlns:sodipodi="http://sodipodi.sourceforge.net/DTD/sodipodi-0.dtd"
   xmlns:inkscape="http://www.inkscape.org/namespaces/inkscape"
   sodipodi:docname="1_3.svg"
   inkscape:version="0.92.3 (2405546, 2018-03-11)"
   id="svg8"
   version="1.1"
   viewBox="0 0 12.08214 6.2230115"
   height="6.2230115mm"
   width="12.08214mm">
  <sodipodi:namedview
     inkscape:window-maximized="1"
     inkscape:window-y="-5"
     inkscape:window-x="0"
     inkscape:window-height="1046"
     inkscape:window-width="1920"
     fit-margin-bottom="0"
     fit-margin-right="0"
     fit-margin-left="0"
     fit-margin-top="0"
     inkscape:snap-global="false"
     showgrid="true"
     inkscape:current-layer="layer1"
     inkscape:document-units="mm"
     inkscape:cy="7.469084"
     inkscape:cx="19.33356"
     inkscape:zoom="22.4"
     inkscape:pageshadow="2"
     inkscape:pageopacity="0.0"
     borderopacity="1.0"
     bordercolor="#666666"
     pagecolor="#ffffff"
     id="base">
    <inkscape:grid
       type="xygrid"
       id="grid10"
       originx="-12.808285"
       originy="-286.94064" />
  </sodipodi:namedview>
  <defs
     id="defs2">
    <marker
       inkscape:stockid="Arrow1Send"
       orient="auto"
       refY="0"
       refX="0"
       id="Arrow1Send"
       style="overflow:visible"
       inkscape:isstock="true">
      <path
         id="path956"
         d="M 0,0 5,-5 -12.5,0 5,5 Z"
         style="fill:#000000;fill-opacity:1;fill-rule:evenodd;stroke:#000000;stroke-width:1.00000003pt;stroke-opacity:1"
         transform="matrix(-0.2,0,0,-0.2,-1.2,0)"
         inkscape:connector-curvature="0" />
    </marker>
    <marker
       inkscape:stockid="Arrow1Mend"
       orient="auto"
       refY="0"
       refX="0"
       id="Arrow1Mend"
       style="overflow:visible"
       inkscape:isstock="true">
      <path
         id="path950"
         d="M 0,0 5,-5 -12.5,0 5,5 Z"
         style="fill:#000000;fill-opacity:1;fill-rule:evenodd;stroke:#000000;stroke-width:1.00000003pt;stroke-opacity:1"
         transform="matrix(-0.4,0,0,-0.4,-4,0)"
         inkscape:connector-curvature="0" />
    </marker>
  </defs>
  <metadata
     id="metadata5">
    <rdf:RDF>
      <cc:Work
         rdf:about="">
        <dc:format>image/svg+xml</dc:format>
        <dc:type
           rdf:resource="http://purl.org/dc/dcmitype/StillImage" />
        <dc:title></dc:title>
      </cc:Work>
    </rdf:RDF>
  </metadata>
  <g
     inkscape:label="Ebene 1"
     inkscape:groupmode="layer"
     id="layer1"
     transform="translate(-12.808285,-3.8363636)">
    <path
       style="fill:none;stroke:#000000;stroke-width:0.26458332px;stroke-linecap:butt;stroke-linejoin:miter;stroke-opacity:1"
       d="m 13.229167,4.6354164 v 5.2916669 h 5.291667 V 4.6354164"
       id="path14-2"
       inkscape:connector-curvature="0" />
    <path
       style="fill:none;stroke:#000000;stroke-width:0.23283449px;stroke-linecap:butt;stroke-linejoin:miter;stroke-opacity:1"
       d="m 12.808285,4.6354164 h 6.146862"
       id="path16-7"
       inkscape:connector-curvature="0" />
    <path
       style="fill:none;stroke:#000000;stroke-width:0.26458332px;stroke-linecap:butt;stroke-linejoin:miter;stroke-opacity:1"
       d="m 15.126916,4.5403188 0.153177,-0.5716635 h 1.216579 l 0.179163,0.6686423"
       id="path20-0"
       inkscape:connector-curvature="0" />
    <path
       style="fill:none;stroke:#000000;stroke-width:0.1;stroke-linecap:butt;stroke-linejoin:miter;stroke-miterlimit:4;stroke-dasharray:none;stroke-opacity:1"
       d="M 15.875,4.6354166 13.229167,7.2812499"
       id="path1265"
       inkscape:connector-curvature="0" />
    <path
       style="fill:none;stroke:#000000;stroke-width:0.1;stroke-linecap:butt;stroke-linejoin:miter;stroke-miterlimit:4;stroke-dasharray:none;stroke-opacity:1"
       d="M 17.197916,4.6354166 13.229167,8.6041665"
       id="path1267"
       inkscape:connector-curvature="0" />
    <path
       style="fill:none;stroke:#000000;stroke-width:0.1;stroke-linecap:butt;stroke-linejoin:miter;stroke-miterlimit:4;stroke-dasharray:none;stroke-opacity:1"
       d="M 18.520833,4.6354166 13.229167,9.9270832"
       id="path1269"
       inkscape:connector-curvature="0" />
    <path
       style="fill:none;stroke:#000000;stroke-width:0.1;stroke-linecap:butt;stroke-linejoin:miter;stroke-miterlimit:4;stroke-dasharray:none;stroke-opacity:1"
       d="M 18.520833,7.2812499 15.875,9.9270832"
       id="path1271"
       inkscape:connector-curvature="0" />
    <path
       style="fill:none;stroke:#000000;stroke-width:0.1;stroke-linecap:butt;stroke-linejoin:miter;stroke-miterlimit:4;stroke-dasharray:none;stroke-opacity:1"
       d="m 18.520833,5.9583332 -3.96875,3.96875"
       id="path1273"
       inkscape:connector-curvature="0" />
    <path
       style="fill:none;stroke:#000000;stroke-width:0.1;stroke-linecap:butt;stroke-linejoin:miter;stroke-miterlimit:4;stroke-dasharray:none;stroke-opacity:1"
       d="m 13.229167,8.6041665 1.322916,1.3229167"
       id="path1275"
       inkscape:connector-curvature="0" />
    <path
       style="fill:none;stroke:#000000;stroke-width:0.1;stroke-linecap:butt;stroke-linejoin:miter;stroke-miterlimit:4;stroke-dasharray:none;stroke-opacity:1"
       d="M 13.229167,7.2812499 15.875,9.9270832"
       id="path1277"
       inkscape:connector-curvature="0" />
    <path
       style="fill:none;stroke:#000000;stroke-width:0.1;stroke-linecap:butt;stroke-linejoin:miter;stroke-miterlimit:4;stroke-dasharray:none;stroke-opacity:1"
       d="m 13.229167,5.9583332 3.968749,3.96875"
       id="path1279"
       inkscape:connector-curvature="0" />
    <path
       style="fill:none;stroke:#000000;stroke-width:0.1;stroke-linecap:butt;stroke-linejoin:miter;stroke-miterlimit:4;stroke-dasharray:none;stroke-opacity:1"
       d="m 13.229167,4.6354166 5.291666,5.2916666"
       id="path1291"
       inkscape:connector-curvature="0" />
    <path
       style="fill:none;stroke:#000000;stroke-width:0.1;stroke-linecap:butt;stroke-linejoin:miter;stroke-miterlimit:4;stroke-dasharray:none;stroke-opacity:1"
       d="m 14.552083,4.6354166 3.96875,3.9687499"
       id="path1293"
       inkscape:connector-curvature="0" />
    <path
       style="fill:none;stroke:#000000;stroke-width:0.1;stroke-linecap:butt;stroke-linejoin:miter;stroke-miterlimit:4;stroke-dasharray:none;stroke-opacity:1"
       d="m 15.875,4.6354166 2.645833,2.6458333"
       id="path1295"
       inkscape:connector-curvature="0" />
    <path
       style="fill:none;stroke:#000000;stroke-width:0.1;stroke-linecap:butt;stroke-linejoin:miter;stroke-miterlimit:4;stroke-dasharray:none;stroke-opacity:1"
       d="m 17.197916,4.6354166 1.322917,1.3229166"
       id="path1297"
       inkscape:connector-curvature="0" />
    <path
       style="fill:none;stroke:#000000;stroke-width:0.1;stroke-linecap:butt;stroke-linejoin:miter;stroke-miterlimit:4;stroke-dasharray:none;stroke-opacity:1"
       d="M 14.552083,4.6354166 13.229167,5.9583332"
       id="path1299"
       inkscape:connector-curvature="0" />
    <path
       style="fill:none;stroke:#000000;stroke-width:0.1;stroke-linecap:butt;stroke-linejoin:miter;stroke-miterlimit:4;stroke-dasharray:none;stroke-opacity:1"
       d="M 18.520833,8.6041665 17.197916,9.9270832"
       id="path1301"
       inkscape:connector-curvature="0" />
    <text
       xml:space="preserve"
       style="font-style:normal;font-weight:normal;font-size:0.70555556px;line-height:1.25;font-family:sans-serif;letter-spacing:0px;word-spacing:0px;fill:#000000;fill-opacity:1;stroke:none;stroke-width:0.26458332"
       x="8.1515465"
       y="16.985798"
       id="text68"
       transform="rotate(-44.321015)"
       inkscape:transform-center-x="-1.4473851"
       inkscape:transform-center-y="1.2779385"><tspan
         sodipodi:role="line"
         id="tspan66"
         x="8.1515465"
         y="16.985798"
         style="stroke-width:0.26458332">}</tspan></text>
    <text
       xml:space="preserve"
       style="font-style:normal;font-weight:normal;font-size:0.70555556px;line-height:1.25;font-family:sans-serif;letter-spacing:0px;word-spacing:0px;fill:#000000;fill-opacity:1;stroke:none;stroke-width:0.26458332"
       x="18.967066"
       y="6.1393895"
       id="text72"><tspan
         sodipodi:role="line"
         id="tspan70"
         x="18.967066"
         y="6.1393895"
         style="font-size:0.56444442px;stroke-width:0.26458332">Auflösungsvermögen</tspan></text>
    <path
       style="fill:none;stroke:#000000;stroke-width:0.02464478;stroke-linecap:butt;stroke-linejoin:miter;stroke-miterlimit:4;stroke-dasharray:none;stroke-opacity:1"
       d="m 17.87635,6.0116274 1.004891,-0.017208"
       id="path74"
       inkscape:connector-curvature="0" />
  </g>
  <g
     id="g1090"
     transform="matrix(1.5370105,0,0,1.5370105,2.3556728,-2.2069179)">
    <g
       id="content"
       transform="matrix(0.00889002,0,0,-0.00889002,-1.5557529,7.3956607)"
       xml:space="preserve"
       stroke-miterlimit="10.433"
       font-style="normal"
       font-variant="normal"
       font-weight="normal"
       font-stretch="normal"
       font-size-adjust="none"
       letter-spacing="normal"
       word-spacing="normal"
       style="font-style:normal;font-variant:normal;font-weight:normal;font-stretch:normal;letter-spacing:normal;word-spacing:normal;text-anchor:start;fill:none;fill-opacity:1;fill-rule:evenodd;stroke:#000000;stroke-linecap:butt;stroke-linejoin:miter;stroke-miterlimit:10.43299961;stroke-dasharray:none;stroke-dashoffset:0;stroke-opacity:1"><path
         d="m 501.66,436.39 0.04,0.16 0.04,0.16 0.04,0.15 0.04,0.14 0.04,0.14 0.04,0.13 0.04,0.12 0.05,0.11 0.05,0.11 0.05,0.11 0.07,0.09 0.06,0.09 0.08,0.09 0.08,0.08 0.09,0.07 0.09,0.07 0.11,0.06 0.12,0.06 0.13,0.05 0.14,0.05 0.15,0.04 0.09,0.02 0.08,0.02 0.09,0.02 0.09,0.02 0.1,0.01 0.1,0.02 0.1,0.01 0.11,0.01 0.11,0.02 0.12,0.01 0.12,0.01 h 0.12 l 0.13,0.01 0.13,0.01 0.14,0.01 h 0.14 0.15 l 0.15,0.01 h 0.16 0.16 0.17 0.17 c 1.14,0 1.6,0 1.6,1 0,0.55 -0.5,0.55 -1.35,0.55 h -6.58 c -1.29,0 -1.34,0 -1.93,-0.95 l -18.19,-28.39 -3.89,28.18 c -0.16,1.16 -0.25,1.16 -1.55,1.16 h -6.83 c -0.93,0 -1.48,0 -1.48,-0.95 0,-0.6 0.44,-0.6 1.44,-0.6 0.65,0 1.54,-0.04 2.14,-0.09 0.79,-0.11 1.09,-0.25 1.09,-0.8 0,-0.2 -0.05,-0.36 -0.19,-0.95 l -6.33,-25.36 c -0.5,-2 -1.34,-3.59 -5.39,-3.73 -0.25,0 -0.89,-0.05 -0.89,-0.96 0,-0.43 0.3,-0.59 0.71,-0.59 1.59,0 3.32,0.16 4.97,0.16 1.7,0 3.5,-0.16 5.14,-0.16 0.25,0 0.89,0 0.89,1 0,0.55 -0.55,0.55 -0.89,0.55 -2.85,0.04 -3.39,1.04 -3.39,2.18 0,0.35 0.04,0.6 0.2,1.14 l 6.76,27.16 h 0.07 l 4.28,-30.89 c 0.09,-0.59 0.14,-1.14 0.75,-1.14 0.54,0 0.84,0.55 1.09,0.89 l 20.13,31.55 h 0.04 l -7.12,-28.55 c -0.5,-1.95 -0.6,-2.34 -4.53,-2.34 -0.85,0 -1.39,0 -1.39,-0.96 0,-0.59 0.59,-0.59 0.75,-0.59 1.39,0 4.78,0.16 6.17,0.16 2.05,0 4.19,-0.16 6.23,-0.16 0.3,0 0.94,0 0.94,1 0,0.55 -0.45,0.55 -1.39,0.55 -1.84,0 -3.23,0 -3.23,0.89 0,0.2 0,0.29 0.25,1.2 z"
         id="path1057"
         inkscape:connector-curvature="0"
         style="fill:#000000;stroke-width:0" /><path
         d="m 525.77,394.25 v 0.02 l -0.01,0.03 v 0.01 0.02 0.01 l -0.01,0.02 v 0.01 l -0.01,0.02 -0.01,0.02 -0.01,0.02 -0.01,0.02 -0.01,0.03 -0.02,0.02 -0.02,0.03 -0.02,0.03 -0.02,0.03 -0.03,0.03 -0.03,0.04 -0.02,0.02 -0.01,0.02 -0.02,0.02 -0.02,0.02 -0.02,0.02 -0.02,0.03 -0.02,0.02 -0.02,0.02 -0.02,0.03 -0.03,0.02 -0.02,0.03 -0.03,0.03 -0.02,0.03 -0.03,0.03 -0.03,0.03 -0.03,0.03 -0.03,0.03 -0.03,0.03 -0.04,0.04 -0.03,0.03 -0.03,0.04 -0.04,0.03 -0.04,0.04 -0.04,0.04 c -6.22,6.28 -7.81,15.69 -7.81,23.31 0,8.67 1.89,17.35 8.01,23.56 0.65,0.61 0.65,0.71 0.65,0.86 0,0.35 -0.19,0.49 -0.49,0.49 -0.5,0 -4.98,-3.38 -7.92,-9.7 -2.55,-5.49 -3.14,-11.02 -3.14,-15.21 0,-3.89 0.55,-9.9 3.28,-15.54 2.98,-6.13 7.28,-9.36 7.78,-9.36 0.3,0 0.49,0.14 0.49,0.5 z"
         id="path1059"
         inkscape:connector-curvature="0"
         style="fill:#000000;stroke-width:0" /><path
         d="m 553.78,435.84 -0.06,-0.06 -0.07,-0.07 -0.08,-0.07 -0.08,-0.07 -0.09,-0.08 -0.09,-0.08 -0.09,-0.09 -0.09,-0.08 -0.1,-0.09 -0.09,-0.1 -0.2,-0.19 -0.19,-0.19 -0.19,-0.21 -0.1,-0.1 -0.09,-0.1 -0.08,-0.1 -0.09,-0.11 -0.08,-0.1 -0.07,-0.1 -0.07,-0.1 -0.07,-0.1 -0.06,-0.1 -0.05,-0.1 -0.05,-0.1 -0.04,-0.09 -0.03,-0.09 -0.02,-0.1 -0.01,-0.08 -0.01,-0.09 c 0,-0.5 0.5,-1 1,-1 0.46,0 0.71,0.36 0.96,0.66 0.59,0.75 1.73,2.14 3.93,3.23 0.35,0.21 0.85,0.46 0.85,1.05 0,0.5 -0.35,0.75 -0.71,1 -1.09,0.75 -1.64,1.64 -2.04,2.83 -0.1,0.45 -0.3,1.11 -0.99,1.11 -0.7,0 -1,-0.66 -1,-1.05 0,-0.25 0.39,-1.84 1.19,-2.89 h -16.78 c -0.85,0 -1.75,0 -1.75,-1 0,-1 0.9,-1 1.75,-1 z"
         id="path1061"
         inkscape:connector-curvature="0"
         style="fill:#000000;stroke-width:0" /><path
         d="m 532.98,409.14 -0.01,-0.07 -0.02,-0.08 -0.01,-0.07 -0.02,-0.08 -0.04,-0.16 -0.03,-0.16 -0.04,-0.16 -0.04,-0.16 -0.04,-0.16 -0.03,-0.16 -0.02,-0.08 -0.02,-0.07 -0.01,-0.07 -0.02,-0.07 -0.01,-0.07 -0.02,-0.07 -0.01,-0.06 -0.01,-0.06 -0.01,-0.06 -0.01,-0.05 -0.01,-0.05 -0.01,-0.04 v -0.04 l -0.01,-0.04 V 407.02 407 c 0,-0.89 0.7,-1.35 1.44,-1.35 0.61,0 1.5,0.39 1.84,1.39 0.11,0.21 1.8,6.99 2,7.88 0.39,1.64 1.3,5.12 1.6,6.48 0.2,0.64 1.59,2.99 2.78,4.08 0.4,0.34 1.84,1.64 4,1.64 1.28,0 2.03,-0.59 2.08,-0.59 -1.49,-0.25 -2.58,-1.46 -2.58,-2.74 0,-0.79 0.54,-1.75 1.89,-1.75 1.34,0 2.73,1.14 2.73,2.94 0,1.75 -1.59,3.23 -4.12,3.23 -3.25,0 -5.44,-2.43 -6.39,-3.82 -0.39,2.23 -2.19,3.82 -4.53,3.82 -2.29,0 -3.24,-1.93 -3.69,-2.82 -0.89,-1.71 -1.55,-4.69 -1.55,-4.85 0,-0.5 0.5,-0.5 0.61,-0.5 0.5,0 0.55,0.07 0.84,1.16 0.85,3.53 1.85,5.92 3.64,5.92 0.85,0 1.55,-0.39 1.55,-2.28 0,-1.05 -0.15,-1.61 -0.79,-4.19 z"
         id="path1063"
         inkscape:connector-curvature="0"
         style="fill:#000000;stroke-width:0" /><path
         d="m 566.98,418.65 v 0.37 l -0.01,0.39 -0.01,0.39 -0.01,0.41 -0.04,0.84 -0.06,0.88 -0.08,0.92 -0.11,0.95 -0.13,0.97 -0.16,1.01 -0.2,1.02 -0.23,1.03 -0.27,1.05 -0.3,1.06 -0.35,1.07 -0.39,1.07 -0.22,0.53 -0.22,0.53 -0.24,0.53 -0.25,0.53 c -2.98,6.12 -7.27,9.36 -7.77,9.36 -0.29,0 -0.5,-0.19 -0.5,-0.49 0,-0.15 0,-0.25 0.94,-1.15 4.89,-4.92 7.73,-12.85 7.73,-23.27 0,-8.51 -1.84,-17.28 -8.03,-23.56 -0.64,-0.59 -0.64,-0.7 -0.64,-0.84 0,-0.3 0.21,-0.5 0.5,-0.5 0.5,0 4.97,3.39 7.92,9.71 2.54,5.47 3.13,11 3.13,15.19 z"
         id="path1065"
         inkscape:connector-curvature="0"
         style="fill:#000000;stroke-width:0" /><path
         d="m 581.47,425.03 v 0.13 l -0.01,0.14 -0.02,0.13 -0.02,0.13 -0.03,0.13 -0.04,0.12 -0.04,0.12 -0.05,0.12 -0.05,0.12 -0.06,0.11 -0.06,0.11 -0.07,0.11 -0.08,0.1 -0.08,0.1 -0.08,0.1 -0.09,0.09 -0.09,0.09 -0.09,0.08 -0.1,0.08 -0.11,0.08 -0.11,0.06 -0.11,0.07 -0.11,0.06 -0.12,0.05 -0.12,0.05 -0.12,0.04 -0.12,0.03 -0.13,0.03 -0.13,0.03 -0.13,0.01 -0.14,0.01 -0.13,0.01 c -1.44,0 -2.64,-1.19 -2.64,-2.64 0,-1.44 1.2,-2.64 2.64,-2.64 1.45,0 2.64,1.2 2.64,2.64 z"
         id="path1067"
         inkscape:connector-curvature="0"
         style="fill:#000000;stroke-width:0" /><path
         d="m 581.47,408.84 v 0.13 l -0.01,0.14 -0.02,0.13 -0.02,0.13 -0.03,0.12 -0.04,0.13 -0.04,0.12 -0.05,0.12 -0.05,0.12 -0.06,0.11 -0.06,0.11 -0.07,0.11 -0.08,0.1 -0.08,0.1 -0.08,0.1 -0.09,0.09 -0.09,0.09 -0.09,0.08 -0.1,0.08 -0.11,0.07 -0.11,0.07 -0.11,0.07 -0.11,0.06 -0.12,0.05 -0.12,0.05 -0.12,0.04 -0.12,0.04 -0.13,0.03 -0.13,0.02 -0.13,0.02 -0.14,0.01 h -0.13 c -1.44,0 -2.64,-1.2 -2.64,-2.64 0,-1.44 1.2,-2.64 2.64,-2.64 1.45,0 2.64,1.2 2.64,2.64 z"
         id="path1069"
         inkscape:connector-curvature="0"
         style="fill:#000000;stroke-width:0" /><path
         d="m 641.09,439.93 h -30.45 l -0.94,-11.22 h 1.25 c 0.69,8.04 1.44,9.68 8.95,9.68 0.91,0 2.2,0 2.7,-0.11 1.05,-0.19 1.05,-0.74 1.05,-1.89 v -26.25 c 0,-1.71 0,-2.39 -5.23,-2.39 h -2 v -1.55 c 2.05,0.16 7.12,0.16 9.42,0.16 2.3,0 7.42,0 9.47,-0.16 v 1.55 h -2 c -5.24,0 -5.24,0.68 -5.24,2.39 v 26.25 c 0,1 0,1.7 0.91,1.89 0.55,0.11 1.89,0.11 2.84,0.11 7.52,0 8.27,-1.64 8.96,-9.68 h 1.25 z"
         id="path1071"
         inkscape:connector-curvature="0"
         style="fill:#000000;stroke-width:0" /><path
         d="m 645.23,417.71 0.05,1.05 c 0.3,7.42 4.49,8.66 6.19,8.66 5.12,0 5.62,-6.72 5.62,-8.66 h -11.81 l -0.05,-1.05 h 13.91 c 1.09,0 1.24,0 1.24,1.05 0,4.92 -2.69,9.75 -8.91,9.75 -5.78,0 -10.38,-5.12 -10.38,-11.36 0,-6.67 5.24,-11.5 10.97,-11.5 6.08,0 8.32,5.53 8.32,6.47 0,0.5 -0.4,0.61 -0.65,0.61 -0.45,0 -0.54,-0.3 -0.65,-0.7 -1.74,-5.13 -6.22,-5.13 -6.72,-5.13 -2.5,0 -4.48,1.49 -5.63,3.33 -1.5,2.39 -1.5,5.69 -1.5,7.48 z"
         id="path1073"
         inkscape:connector-curvature="0"
         style="fill:#000000;stroke-width:0" /><path
         d="m 670.59,428.21 -6.97,-0.54 v -1.55 c 3.24,0 3.69,-0.3 3.69,-2.73 v -13.41 c 0,-2.23 -0.54,-2.23 -3.89,-2.23 v -1.55 c 1.6,0.05 4.28,0.16 5.49,0.16 1.75,0 3.48,-0.11 5.18,-0.16 v 1.55 c -3.29,0 -3.5,0.25 -3.5,2.18 z"
         id="path1075"
         inkscape:connector-curvature="0"
         style="fill:#000000;stroke-width:0" /><path
         d="m 670.8,436.89 -0.01,0.14 -0.01,0.15 -0.02,0.14 -0.02,0.14 -0.03,0.13 -0.04,0.13 -0.04,0.13 -0.05,0.12 -0.05,0.12 -0.07,0.12 -0.06,0.11 -0.07,0.1 -0.08,0.1 -0.08,0.1 -0.08,0.1 -0.09,0.08 -0.1,0.09 -0.09,0.08 -0.1,0.07 -0.11,0.07 -0.1,0.07 -0.12,0.06 -0.11,0.05 -0.11,0.05 -0.12,0.04 -0.12,0.04 -0.13,0.03 -0.12,0.03 -0.13,0.02 -0.13,0.01 -0.12,0.01 -0.13,0.01 c -1.55,0 -2.64,-1.35 -2.64,-2.64 0,-1.35 1.09,-2.64 2.64,-2.64 1.39,0 2.64,1.04 2.64,2.64 z"
         id="path1077"
         inkscape:connector-curvature="0"
         style="fill:#000000;stroke-width:0" /><path
         d="m 684.39,440.78 -7.17,-0.55 v -1.55 c 3.48,0 3.89,-0.34 3.89,-2.79 v -25.91 c 0,-2.23 -0.55,-2.23 -3.89,-2.23 v -1.55 c 1.64,0.05 4.28,0.16 5.53,0.16 1.25,0 3.69,-0.11 5.53,-0.16 v 1.55 c -3.34,0 -3.89,0 -3.89,2.23 z"
         id="path1079"
         inkscape:connector-curvature="0"
         style="fill:#000000;stroke-width:0" /><path
         d="m 695.2,417.06 0.01,0.38 v 0.36 l 0.02,0.36 0.02,0.35 0.03,0.34 0.03,0.34 0.03,0.32 0.04,0.32 0.05,0.31 0.05,0.3 0.06,0.29 0.06,0.29 0.13,0.55 0.15,0.51 0.17,0.49 0.18,0.46 0.2,0.43 0.21,0.4 0.22,0.38 0.23,0.35 0.24,0.32 0.25,0.3 0.26,0.28 0.26,0.26 0.27,0.23 0.28,0.21 0.27,0.19 0.29,0.16 0.28,0.15 0.28,0.13 0.28,0.12 0.29,0.09 0.27,0.08 0.28,0.06 0.27,0.05 0.27,0.03 0.26,0.02 0.25,0.01 c 0.44,0 3.58,-0.05 5.33,-1.85 -2.05,-0.15 -2.35,-1.64 -2.35,-2.29 0,-1.3 0.89,-2.3 2.3,-2.3 1.28,0 2.28,0.86 2.28,2.34 0,3.39 -3.78,5.33 -7.62,5.33 -6.22,0 -10.82,-5.37 -10.82,-11.55 0,-6.37 4.94,-11.31 10.72,-11.31 6.67,0 8.27,5.99 8.27,6.47 0,0.5 -0.5,0.5 -0.64,0.5 -0.46,0 -0.55,-0.19 -0.66,-0.5 -1.44,-4.62 -4.67,-5.22 -6.52,-5.22 -2.64,0 -7.03,2.14 -7.03,10.16 z"
         id="path1081"
         inkscape:connector-curvature="0"
         style="fill:#000000;stroke-width:0" /><path
         d="m 715.5,409.98 v -0.1 l -0.01,-0.1 v -0.19 l -0.01,-0.18 -0.01,-0.17 -0.02,-0.15 -0.03,-0.15 -0.03,-0.13 -0.03,-0.12 -0.04,-0.11 -0.05,-0.11 -0.06,-0.09 -0.06,-0.09 -0.08,-0.08 -0.08,-0.07 -0.09,-0.06 -0.1,-0.05 -0.1,-0.05 -0.12,-0.05 -0.13,-0.03 -0.14,-0.04 -0.16,-0.02 -0.16,-0.03 -0.18,-0.01 -0.09,-0.01 -0.1,-0.01 -0.1,-0.01 h -0.1 l -0.1,-0.01 h -0.11 -0.12 l -0.11,-0.01 h -0.12 -0.13 -0.13 -0.13 -0.13 -0.14 -0.14 -0.15 -0.15 -0.16 v -1.55 c 1.75,0.05 4.29,0.16 5.63,0.16 1.3,0 3.89,-0.11 5.58,-0.16 v 1.55 c -3.33,0 -3.88,0 -3.88,2.23 v 9.17 c 0,5.19 3.54,7.97 6.72,7.97 3.14,0 3.69,-2.69 3.69,-5.53 v -11.61 c 0,-2.23 -0.55,-2.23 -3.89,-2.23 v -1.55 c 1.75,0.05 4.3,0.16 5.64,0.16 1.3,0 3.88,-0.11 5.58,-0.16 v 1.55 c -2.6,0 -3.85,0 -3.89,1.5 v 9.51 c 0,4.28 0,5.83 -1.55,7.61 -0.69,0.86 -2.34,1.84 -5.22,1.84 -4.19,0 -6.39,-2.98 -7.23,-4.87 v 17.44 l -7.18,-0.55 v -1.55 c 3.49,0 3.9,-0.34 3.9,-2.79 z"
         id="path1083"
         inkscape:connector-curvature="0"
         style="fill:#000000;stroke-width:0" /><path
         d="m 743.26,417.71 0.05,1.05 c 0.29,7.42 4.48,8.66 6.19,8.66 5.12,0 5.62,-6.72 5.62,-8.66 h -11.81 l -0.05,-1.05 h 13.91 c 1.09,0 1.23,0 1.23,1.05 0,4.92 -2.68,9.75 -8.9,9.75 -5.78,0 -10.38,-5.12 -10.38,-11.36 0,-6.67 5.23,-11.5 10.97,-11.5 6.08,0 8.31,5.53 8.31,6.47 0,0.5 -0.39,0.61 -0.64,0.61 -0.45,0 -0.54,-0.3 -0.66,-0.7 -1.73,-5.13 -6.21,-5.13 -6.71,-5.13 -2.5,0 -4.49,1.49 -5.63,3.33 -1.5,2.39 -1.5,5.69 -1.5,7.48 z"
         id="path1085"
         inkscape:connector-curvature="0"
         style="fill:#000000;stroke-width:0" /><path
         d="m 765.29,423.34 v -13.36 c 0,-2.23 -0.54,-2.23 -3.89,-2.23 v -1.55 c 1.75,0.05 4.28,0.16 5.63,0.16 1.29,0 3.89,-0.11 5.57,-0.16 v 1.55 c -3.32,0 -3.87,0 -3.87,2.23 v 9.17 c 0,5.19 3.53,7.97 6.72,7.97 3.14,0 3.69,-2.69 3.69,-5.53 v -11.61 c 0,-2.23 -0.55,-2.23 -3.89,-2.23 v -1.55 c 1.75,0.05 4.29,0.16 5.64,0.16 1.29,0 3.87,-0.11 5.58,-0.16 v 1.55 c -2.6,0 -3.85,0 -3.9,1.5 v 9.51 c 0,4.28 0,5.83 -1.54,7.61 -0.69,0.86 -2.35,1.84 -5.22,1.84 -3.64,0 -5.99,-2.14 -7.38,-5.21 v 5.21 l -7.03,-0.54 v -1.55 c 3.49,0 3.89,-0.34 3.89,-2.78 z"
         id="path1087"
         inkscape:connector-curvature="0"
         style="fill:#000000;stroke-width:0" /></g>  </g>
  <g
     id="g1218"
     transform="matrix(1.5370105,0,0,1.5370105,2.4001284,-1.6284477)">
    <g
       word-spacing="normal"
       letter-spacing="normal"
       font-size-adjust="none"
       font-stretch="normal"
       font-weight="normal"
       font-variant="normal"
       font-style="normal"
       stroke-miterlimit="10.433"
       xml:space="preserve"
       transform="matrix(0.00889002,0,0,-0.00889002,-1.5557529,7.3956607)"
       id="g1216"
       style="font-style:normal;font-variant:normal;font-weight:normal;font-stretch:normal;letter-spacing:normal;word-spacing:normal;text-anchor:start;fill:none;fill-opacity:1;fill-rule:evenodd;stroke:#000000;stroke-linecap:butt;stroke-linejoin:miter;stroke-miterlimit:10.43299961;stroke-dasharray:none;stroke-dashoffset:0;stroke-opacity:1"><path
         id="path1190"
         d="m 464.33,428.21 -6.97,-0.54 v -1.55 c 3.24,0 3.69,-0.3 3.69,-2.73 v -13.41 c 0,-2.23 -0.55,-2.23 -3.89,-2.23 v -1.55 c 1.59,0.05 4.28,0.16 5.48,0.16 1.75,0 3.49,-0.11 5.19,-0.16 v 1.55 c -3.29,0 -3.5,0.25 -3.5,2.18 z"
         inkscape:connector-curvature="0"
         style="fill:#000000;stroke-width:0" /><path
         id="path1192"
         d="m 464.54,436.89 -0.01,0.14 -0.01,0.15 -0.02,0.14 -0.02,0.14 -0.03,0.13 -0.04,0.13 -0.04,0.13 -0.05,0.12 -0.06,0.12 -0.06,0.12 -0.06,0.11 -0.07,0.1 -0.08,0.1 -0.08,0.1 -0.08,0.1 -0.09,0.08 -0.1,0.09 -0.09,0.08 -0.1,0.07 -0.11,0.07 -0.11,0.07 -0.11,0.06 -0.11,0.05 -0.12,0.05 -0.11,0.04 -0.13,0.04 -0.12,0.03 -0.12,0.03 -0.13,0.02 -0.13,0.01 -0.13,0.01 -0.13,0.01 c -1.54,0 -2.64,-1.35 -2.64,-2.64 0,-1.35 1.1,-2.64 2.64,-2.64 1.4,0 2.65,1.04 2.65,2.64 z"
         inkscape:connector-curvature="0"
         style="fill:#000000;stroke-width:0" /><path
         id="path1194"
         d="m 474.8,423.34 v -13.36 c 0,-2.23 -0.55,-2.23 -3.89,-2.23 v -1.55 c 1.75,0.05 4.28,0.16 5.63,0.16 1.29,0 3.89,-0.11 5.57,-0.16 v 1.55 c -3.32,0 -3.87,0 -3.87,2.23 v 9.17 c 0,5.19 3.53,7.97 6.72,7.97 3.14,0 3.68,-2.69 3.68,-5.53 v -11.61 c 0,-2.23 -0.54,-2.23 -3.89,-2.23 v -1.55 c 1.75,0.05 4.3,0.16 5.64,0.16 1.3,0 3.88,-0.11 5.58,-0.16 v 1.55 c -2.59,0 -3.84,0 -3.89,1.5 v 9.51 c 0,4.28 0,5.83 -1.54,7.61 -0.69,0.86 -2.35,1.84 -5.22,1.84 -3.64,0 -5.99,-2.14 -7.38,-5.21 v 5.21 l -7.03,-0.54 v -1.55 c 3.48,0 3.89,-0.34 3.89,-2.78 z"
         inkscape:connector-curvature="0"
         style="fill:#000000;stroke-width:0" /><path
         id="path1196"
         d="m 532.65,408.93 v -3.28 l 7.32,0.55 v 1.55 c -3.49,0 -3.88,0.34 -3.88,2.78 v 30.25 l -7.17,-0.55 v -1.55 c 3.48,0 3.87,-0.34 3.87,-2.79 v -10.75 c -1.44,1.78 -3.57,3.07 -6.28,3.07 l 0.21,-1.09 c 1.75,0 3.84,-0.75 5.38,-2.98 0.55,-0.85 0.55,-0.96 0.55,-1.85 v 0 -10.22 c 0,-0.89 0,-1 -0.55,-1.84 -1.5,-2.39 -3.75,-3.48 -5.88,-3.48 -2.24,0 -4.04,1.29 -5.22,3.18 -1.3,2.05 -1.46,4.89 -1.46,6.93 0,1.84 0.1,4.84 1.55,7.07 1.05,1.55 2.94,3.19 5.63,3.19 l -0.21,1.09 c -5.87,0 -11.11,-4.87 -11.11,-11.29 0,-6.33 4.89,-11.27 10.57,-11.27 3.18,0 5.43,1.69 6.68,3.28 z"
         inkscape:connector-curvature="0"
         style="fill:#000000;stroke-width:0" /><path
         id="path1198"
         d="m 546.97,417.71 0.04,1.05 c 0.3,7.42 4.49,8.66 6.19,8.66 5.12,0 5.62,-6.72 5.62,-8.66 h -11.81 l -0.04,-1.05 h 13.9 c 1.1,0 1.23,0 1.23,1.05 0,4.92 -2.68,9.75 -8.9,9.75 -5.78,0 -10.38,-5.12 -10.38,-11.36 0,-6.67 5.24,-11.5 10.97,-11.5 6.08,0 8.31,5.53 8.31,6.47 0,0.5 -0.38,0.61 -0.63,0.61 -0.46,0 -0.55,-0.3 -0.66,-0.7 -1.74,-5.13 -6.22,-5.13 -6.72,-5.13 -2.5,0 -4.49,1.49 -5.62,3.33 -1.5,2.39 -1.5,5.69 -1.5,7.48 z"
         inkscape:connector-curvature="0"
         style="fill:#000000;stroke-width:0" /><path
         id="path1200"
         d="m 571.82,422.75 v 5.46 l -6.92,-0.54 v -1.55 c 3.49,0 3.89,-0.34 3.89,-2.78 v -13.36 c 0,-2.23 -0.54,-2.23 -3.89,-2.23 v -1.55 c 1.95,0.05 4.28,0.16 5.69,0.16 1.98,0 4.33,0 6.33,-0.16 v 1.55 h -1.05 c -3.69,0 -3.8,0.54 -3.8,2.34 v 7.67 c 0,4.92 2.1,9.36 5.9,9.36 0.34,0 0.43,0 0.54,-0.05 -0.16,-0.04 -1.16,-0.64 -1.16,-1.93 0,-1.41 1.05,-2.14 2.16,-2.14 0.89,0 2.14,0.59 2.14,2.18 0,1.6 -1.55,3.03 -3.68,3.03 -3.65,0 -5.44,-3.32 -6.15,-5.46 z"
         inkscape:connector-curvature="0"
         style="fill:#000000;stroke-width:0" /><path
         id="path1202"
         d="m 622.45,423.98 0.44,0.1 0.45,0.1 0.43,0.13 0.42,0.13 0.41,0.14 0.41,0.16 0.39,0.17 0.38,0.18 0.37,0.19 0.36,0.2 0.35,0.21 0.33,0.21 0.33,0.23 0.31,0.24 0.29,0.25 0.28,0.25 0.27,0.26 0.25,0.27 0.24,0.28 0.22,0.28 0.21,0.29 0.19,0.3 0.18,0.3 0.15,0.31 0.14,0.32 0.13,0.32 0.1,0.32 0.09,0.33 0.07,0.34 0.05,0.33 0.03,0.34 0.01,0.35 c 0,4.33 -4.6,8.42 -11.07,8.42 l -0.36,-1.55 c 4.85,0 6.58,-4.23 6.58,-6.87 0,-3.19 -2.43,-7.38 -7.97,-7.38 h -7.21 v -1.09 h 9.35 c 4.94,0 7.04,-4.64 7.04,-7.97 0,-3.55 -2.6,-7.62 -7.72,-7.62 v 0 h -6.24 c -2.34,0 -2.43,0.34 -2.43,1.98 v 13.61 1.09 12.25 c 0,1.66 0.09,2 2.43,2 h 6.17 l 0.36,1.55 h -18.23 v -1.55 h 1.19 c 3.84,0 3.93,-0.54 3.93,-2.34 v -26.25 c 0,-1.8 -0.09,-2.34 -3.93,-2.34 h -1.19 v -1.55 h 19.53 c 6.63,0 11.11,4.44 11.11,9.12 0,4.33 -4.09,8.07 -9.62,8.66 z"
         inkscape:connector-curvature="0"
         style="fill:#000000;stroke-width:0" /><path
         id="path1204"
         d="m 658.38,416.86 -0.02,0.59 -0.04,0.59 -0.07,0.58 -0.1,0.57 -0.12,0.56 -0.15,0.55 -0.18,0.54 -0.19,0.53 -0.23,0.51 -0.24,0.5 -0.27,0.49 -0.29,0.47 -0.3,0.46 -0.33,0.44 -0.35,0.43 -0.37,0.4 -0.38,0.39 -0.4,0.37 -0.42,0.35 -0.43,0.32 -0.45,0.31 -0.46,0.28 -0.47,0.26 -0.49,0.24 -0.5,0.21 -0.51,0.18 -0.52,0.16 -0.53,0.13 -0.54,0.11 -0.55,0.07 -0.55,0.05 -0.57,0.01 -0.04,-1.09 c 2.18,0 4.33,-1.1 5.62,-3.24 1.3,-2.14 1.3,-5.03 1.3,-6.92 0,-1.8 0,-4.48 -1.09,-6.67 -1.1,-2.25 -3.29,-3.69 -5.79,-3.69 v 0 c -2.14,0 -4.33,1.05 -5.67,3.33 -1.25,2.2 -1.25,5.23 -1.25,7.03 0,1.94 0,4.63 1.19,6.83 1.36,2.28 3.69,3.33 5.69,3.33 l 0.04,1.09 c -6.21,0 -11.06,-5.42 -11.06,-11.65 0,-6.43 5.19,-11.21 11.02,-11.21 6.03,0 11.06,4.88 11.06,11.21 z"
         inkscape:connector-curvature="0"
         style="fill:#000000;stroke-width:0" /><path
         id="path1206"
         d="m 672.72,417.9 0.29,0.36 0.29,0.37 0.3,0.38 0.3,0.39 0.62,0.78 0.3,0.38 0.31,0.39 0.3,0.37 0.3,0.37 0.28,0.35 0.29,0.34 0.13,0.16 0.14,0.16 0.13,0.16 0.12,0.15 0.13,0.14 0.12,0.14 0.12,0.13 0.11,0.12 c 1.55,1.78 3.6,2.53 5.94,2.58 v 1.55 c -1.3,-0.1 -2.8,-0.14 -4.09,-0.14 -1.49,0 -4.13,0.09 -4.79,0.14 v -1.55 c 1.05,-0.09 1.46,-0.73 1.46,-1.53 0,-0.8 -0.5,-1.45 -0.75,-1.75 l -3.1,-3.89 -3.87,5.03 c -0.45,0.5 -0.45,0.61 -0.45,0.91 0,0.75 0.75,1.18 1.73,1.23 v 1.55 c -1.28,-0.05 -4.58,-0.14 -5.38,-0.14 -1.04,0 -3.39,0.04 -4.73,0.14 v -1.55 c 3.48,0 3.55,-0.05 5.88,-3.03 l 4.93,-6.42 -4.68,-5.94 c -2.4,-2.89 -5.33,-2.98 -6.38,-2.98 v -1.55 c 1.3,0.09 2.84,0.16 4.14,0.16 1.44,0 3.53,-0.11 4.74,-0.16 v 1.55 c -1.1,0.14 -1.46,0.79 -1.46,1.54 0,1.1 1.46,2.74 4.49,6.33 l 3.79,-4.98 c 0.39,-0.55 1.05,-1.35 1.05,-1.64 0,-0.46 -0.45,-1.21 -1.8,-1.25 v -1.55 c 1.49,0.05 4.28,0.16 5.38,0.16 1.34,0 3.3,-0.07 4.78,-0.16 v 1.55 c -2.69,0 -3.58,0.09 -4.73,1.54 z"
         inkscape:connector-curvature="0"
         style="fill:#000000;stroke-width:0" /><path
         id="path1208"
         d="m 720.75,410.14 v -4.49 l 7.17,0.55 v 1.55 c -3.49,0 -3.89,0.34 -3.89,2.78 v 17.68 l -7.33,-0.54 v -1.55 c 3.5,0 3.89,-0.34 3.89,-2.78 v -8.88 c 0,-4.32 -2.39,-7.71 -6.03,-7.71 -4.17,0 -4.38,2.34 -4.38,4.93 v 16.53 l -7.33,-0.54 v -1.55 c 3.9,0 3.9,-0.14 3.9,-4.58 v -7.47 c 0,-3.89 0,-8.42 7.56,-8.42 2.79,0 4.98,1.39 6.44,4.49 z"
         inkscape:connector-curvature="0"
         style="fill:#000000;stroke-width:0" /><path
         id="path1210"
         d="m 734.47,423.34 v -13.36 c 0,-2.23 -0.55,-2.23 -3.9,-2.23 v -1.55 c 1.75,0.05 4.28,0.16 5.63,0.16 1.3,0 3.89,-0.11 5.58,-0.16 v 1.55 c -3.33,0 -3.88,0 -3.88,2.23 v 9.17 c 0,5.19 3.53,7.97 6.72,7.97 3.14,0 3.69,-2.69 3.69,-5.53 v -11.61 c 0,-2.23 -0.55,-2.23 -3.89,-2.23 v -1.55 c 1.75,0.05 4.3,0.16 5.64,0.16 1.29,0 3.87,-0.11 5.58,-0.16 v 1.55 c -3.35,0 -3.89,0 -3.89,2.23 v 9.17 c 0,5.19 3.54,7.97 6.73,7.97 3.14,0 3.69,-2.69 3.69,-5.53 v -11.61 c 0,-2.23 -0.55,-2.23 -3.89,-2.23 v -1.55 c 1.73,0.05 4.28,0.16 5.62,0.16 1.3,0 3.89,-0.11 5.58,-0.16 v 1.55 c -2.58,0 -3.83,0 -3.88,1.5 v 9.51 c 0,4.28 0,5.83 -1.54,7.61 -0.71,0.86 -2.34,1.84 -5.24,1.84 -4.18,0 -6.37,-2.98 -7.22,-4.87 -0.7,4.33 -4.38,4.87 -6.62,4.87 -3.64,0 -5.98,-2.14 -7.38,-5.21 v 5.21 l -7.03,-0.54 v -1.55 c 3.49,0 3.9,-0.34 3.9,-2.78 z"
         inkscape:connector-curvature="0"
         style="fill:#000000;stroke-width:0" /><path
         id="path1212"
         d="m 812.25,435.84 -0.07,-0.06 -0.07,-0.07 -0.08,-0.07 -0.08,-0.07 -0.08,-0.08 -0.09,-0.08 -0.09,-0.09 -0.1,-0.08 -0.09,-0.09 -0.1,-0.1 -0.19,-0.19 -0.2,-0.19 -0.19,-0.21 -0.09,-0.1 -0.09,-0.1 -0.09,-0.1 -0.08,-0.11 -0.08,-0.1 -0.08,-0.1 -0.07,-0.1 -0.06,-0.1 -0.06,-0.1 -0.06,-0.1 -0.04,-0.1 -0.04,-0.09 -0.03,-0.09 -0.03,-0.1 -0.01,-0.08 v -0.09 c 0,-0.5 0.5,-1 1,-1 0.45,0 0.7,0.36 0.95,0.66 0.59,0.75 1.73,2.14 3.94,3.23 0.34,0.21 0.84,0.46 0.84,1.05 0,0.5 -0.34,0.75 -0.7,1 -1.1,0.75 -1.64,1.64 -2.05,2.83 -0.09,0.45 -0.3,1.11 -0.98,1.11 -0.71,0 -1,-0.66 -1,-1.05 0,-0.25 0.39,-1.84 1.18,-2.89 h -16.78 c -0.84,0 -1.75,0 -1.75,-1 0,-1 0.91,-1 1.75,-1 z"
         inkscape:connector-curvature="0"
         style="fill:#000000;stroke-width:0" /><path
         id="path1214"
         d="m 791.45,409.14 -0.02,-0.07 -0.01,-0.08 -0.02,-0.07 -0.02,-0.08 -0.03,-0.16 -0.04,-0.16 -0.04,-0.16 -0.03,-0.16 -0.04,-0.16 -0.04,-0.16 -0.01,-0.08 -0.02,-0.07 -0.02,-0.07 -0.01,-0.07 -0.02,-0.07 -0.01,-0.07 -0.01,-0.06 -0.02,-0.06 -0.01,-0.06 -0.01,-0.05 v -0.05 l -0.01,-0.04 -0.01,-0.04 v -0.04 -0.03 -0.02 c 0,-0.89 0.7,-1.35 1.43,-1.35 0.61,0 1.5,0.39 1.85,1.39 0.11,0.21 1.79,6.99 2,7.88 0.39,1.64 1.29,5.12 1.59,6.48 0.2,0.64 1.6,2.99 2.78,4.08 0.41,0.34 1.85,1.64 4,1.64 1.28,0 2.03,-0.59 2.08,-0.59 -1.48,-0.25 -2.58,-1.46 -2.58,-2.74 0,-0.79 0.55,-1.75 1.89,-1.75 1.35,0 2.74,1.14 2.74,2.94 0,1.75 -1.6,3.23 -4.13,3.23 -3.25,0 -5.43,-2.43 -6.39,-3.82 -0.39,2.23 -2.19,3.82 -4.53,3.82 -2.28,0 -3.23,-1.93 -3.69,-2.82 -0.89,-1.71 -1.54,-4.69 -1.54,-4.85 0,-0.5 0.5,-0.5 0.6,-0.5 0.5,0 0.55,0.07 0.85,1.16 0.84,3.53 1.84,5.92 3.64,5.92 0.84,0 1.55,-0.39 1.55,-2.28 0,-1.05 -0.16,-1.61 -0.8,-4.19 z"
         inkscape:connector-curvature="0"
         style="fill:#000000;stroke-width:0" /></g>  </g>
</svg>
